inDegrees=no
num_controls=7
num_derivatives=13
num_iterations=138
num_multipliers=7
num_parameters=0
num_slacks=7
num_states=26
objective=5.601998
objective_accelerations=0.876636
objective_balance=0.022601
objective_effort=0.199333
objective_height=4.429060
objective_ligament=0.074368
solver_duration=1520.206340
status=Solve_Succeeded
success=true
DataType=double
version=3
OpenSimVersion=4.4-2022-07-23-0e9fedc
endheader
time	/jointset/ground_pelvis/pelvis_tilt/value	/jointset/ground_pelvis/pelvis_tx/value	/jointset/ground_pelvis/pelvis_ty/value	/jointset/hip_l/hip_flexion_l/value	/jointset/hip_l/hip_adduction_l/value	/jointset/hip_l/hip_rotation_l/value	/jointset/back/lumbar_extension/value	/jointset/patellofemoral_l/patellar_flexion_l/value	/jointset/knee_l/knee_flexion_l/value	/jointset/knee_l/knee_adduction_l/value	/jointset/knee_l/knee_rotation_l/value	/jointset/ankle_l/ankle_angle_l/value	/jointset/subtalar_l/subtalar_angle_l/value	/jointset/ground_pelvis/pelvis_tilt/speed	/jointset/ground_pelvis/pelvis_tx/speed	/jointset/ground_pelvis/pelvis_ty/speed	/jointset/hip_l/hip_flexion_l/speed	/jointset/hip_l/hip_adduction_l/speed	/jointset/hip_l/hip_rotation_l/speed	/jointset/back/lumbar_extension/speed	/jointset/patellofemoral_l/patellar_flexion_l/speed	/jointset/knee_l/knee_flexion_l/speed	/jointset/knee_l/knee_adduction_l/speed	/jointset/knee_l/knee_rotation_l/speed	/jointset/ankle_l/ankle_angle_l/speed	/jointset/subtalar_l/subtalar_angle_l/speed	/forceset/tau_hip_flexion_l	/forceset/tau_hip_adduction_l	/forceset/tau_hip_rotation_l	/forceset/tau_knee_flexion_l	/forceset/tau_ankle_angle_l	/forceset/tau_subtalar_angle_l	/forceset/tau_lumbar_extension	lambda_cid13_p0	lambda_cid13_p1	lambda_cid13_p2	lambda_cid13_p3	lambda_cid13_p4	lambda_cid13_p5	lambda_cid14_p0	/jointset/ground_pelvis/pelvis_tilt/accel	/jointset/ground_pelvis/pelvis_tx/accel	/jointset/ground_pelvis/pelvis_ty/accel	/jointset/hip_l/hip_flexion_l/accel	/jointset/hip_l/hip_adduction_l/accel	/jointset/hip_l/hip_rotation_l/accel	/jointset/back/lumbar_extension/accel	/jointset/patellofemoral_l/patellar_flexion_l/accel	/jointset/knee_l/knee_flexion_l/accel	/jointset/knee_l/knee_adduction_l/accel	/jointset/knee_l/knee_rotation_l/accel	/jointset/ankle_l/ankle_angle_l/accel	/jointset/subtalar_l/subtalar_angle_l/accel	gamma_cid13_p0	gamma_cid13_p1	gamma_cid13_p2	gamma_cid13_p3	gamma_cid13_p4	gamma_cid13_p5	gamma_cid14_p0
1.5	-0.3948075100748581	0.04080525047772545	0.7716789539370383	1.120155123343488	-0.3563130866146515	-0.03551149891389483	-0.3388817746911607	0.8837907670072468	0.8837907670071816	-0.02172953591091428	-0.1733058826655175	0.2825049067390428	0.1603066784337694	0.6002767635207895	0.2890255023238106	0.5816348939661163	-2.607765114817529	-0.0257278509330094	-0.6194181703076204	0.6085641261152001	-2.376993518783804	-2.376993518783671	-0.3710921756911612	0.02529656325210726	-0.5591850417623013	-0.2586765878106388	-0.149366826096168	0.03005307755129272	-0.003111824643096304	-0.1285603949390416	-0.03897138912134644	0.0231463428367911	0.1366072564074691	-34.51394615224918	-5.976258610470972	2.918491794393155	-5.180614538980801	-425.7187799583212	-63.59573680101337	-7.489788951196919	0.745943356001682	0.7321679420434599	-0.8669691431440409	-1.50665276707726	0.3099307589453231	-0.6728508927682428	1.79361964178596	-1.295939670441695	-1.295939670441594	-0.08491524524489273	0.3158319151002102	-0.6314252471399046	0.4479523099805727	8.496881138799438e-07	-7.515195092468177e-07	-1.079119292717295e-05	-6.74511880808749e-07	2.068607068149425e-06	1.506334580957183e-06	1.219179968474215e-06
1.51	-0.3887675755146226	0.04373165487708278	0.7774507875373972	1.094003843519795	-0.3565581090170421	-0.04172935331811103	-0.3327086405830501	0.859958088175822	0.8599580881758007	-0.02545760183347998	-0.1730350480934563	0.2768810113583175	0.1577375821892646	0.6075953329114921	0.296199525998618	0.5725984639387841	-2.622115669541214	-0.02327219538858513	-0.6240928043847984	0.625953438197854	-2.389216319767844	-2.389216319767734	-0.3744972644562767	0.02890753689210788	-0.5655090549337595	-0.2551078581508586	-0.1442258345586086	0.02900806414505241	-0.002180587285051401	-0.1250285543126625	-0.03926331171337319	0.02244653995956258	0.1323682846922689	-34.4553597371037	-5.861733257351808	3.104851947294086	-4.708153158064789	-421.73695396241	-63.36477866669149	-8.472147339007776	0.7076527971686323	0.7015122808554356	-0.9415661965824598	-1.342872608110683	0.2156873460188541	-0.3545913435216552	1.69519839538126	-1.136786414525773	-1.136786414529317	-0.4651236146601638	0.3873607519521718	-0.6201586317885792	0.3179119132989432	8.289585226136332e-07	-7.950268484094239e-07	-1.048609835441918e-05	-6.569031540025766e-07	2.082927752587285e-06	1.769248956578704e-06	1.157886882268232e-06
1.52	-0.3826578874471602	0.04672809805331962	0.7831283395846719	1.067720334992251	-0.3567781139852269	-0.04799191839874219	-0.3263648910733368	0.836012914114122	0.8360129141141484	-0.02921908222824035	-0.1727273776522953	0.2711964219899516	0.155205488965222	0.6142274649647326	0.3030332576997151	0.5627785833492542	-2.634210855588771	-0.02072436409106896	-0.6283603055951371	0.6426872064355391	-2.399492564837505	-2.399492564837418	-0.3777750701219957	0.03266373707219451	-0.5713238392908092	-0.2512759837181869	-0.1390848430210314	0.0279630507389303	-0.001249349927122445	-0.1214967136862641	-0.03955523430536312	0.02174673708250701	0.1281293129770655	-34.3891088443022	-5.751654934349276	3.295474691852542	-4.306866256466052	-417.6463286176277	-63.27501315413681	-9.475058443791875	0.6086558885095744	0.6641095473012045	-1.023659255583617	-1.055579031851682	0.3283659095637423	-0.5914243194003819	1.662510872792323	-0.9066284875656778	-0.9066284875656972	-0.05945862536553629	0.3448772231173572	-0.5295794842584939	0.5005812645587642	8.197000709952813e-07	-5.844633104073049e-07	-1.027842264171302e-05	-6.10015535787489e-07	2.123794490494934e-06	2.152415977196624e-06	1.134050270595785e-06
1.53	-0.3764852033622225	0.04979114197141467	0.7887038763755491	1.041326965919847	-0.3569723492710931	-0.05429599022792216	-0.3198571469743385	0.8119747597395539	0.8119747597395691	-0.03301211823041673	-0.1723817913191732	0.2654563418968039	0.1527129027082213	0.620192726856679	0.3095143628169857	0.5522040628548684	-2.644072117773486	-0.01811273367002862	-0.6323786819313468	0.6587572022342656	-2.407781508379257	-2.407781508379208	-0.3807932490748586	0.03650298022955052	-0.5765847127888016	-0.2471944942597518	-0.1341292388449639	0.02810851221741272	-0.0001524362854392842	-0.1181332911076224	-0.03952394324851002	0.01971020999032912	0.1240231822554053	-34.35921074184738	-4.942644140977259	3.246698604751427	-3.793138729270761	-413.9353014790753	-61.8180672414291	-10.47593070730318	0.5730326443666923	0.6308384752624421	-1.092609273235843	-0.8926617773352238	0.2305908600867144	-0.2944818218319077	1.56358226418549	-0.7367387437203098	-0.7367387437258922	-0.4174664824511349	0.408992900797696	-0.508205434785862	0.3701285537135651	8.226297052528853e-07	-1.039494654176683e-07	-1.017425446780745e-05	-5.320190954504293e-07	2.192866410214232e-06	2.663351433123215e-06	1.15001116311522e-06
1.54	-0.370256352397393	0.05291714243694724	0.7941700157961081	1.01484673183249	-0.35713986240241	-0.06063773332666543	-0.3131918352511974	0.7878643736383014	0.7878643736383347	-0.03683422981255547	-0.1719967035467446	0.2596668802382344	0.1502627704992506	0.6254608409417837	0.3156245671872198	0.5408991092856762	-2.651583858580358	-0.01537993318050647	-0.6358945595115831	0.6742007312638824	-2.413938910170617	-2.413938910170605	-0.3835901861158947	0.04056402493702618	-0.581200152375444	-0.242785174112206	-0.1291736346688599	0.02825397369600236	0.0009444773563787059	-0.1147698685289595	-0.03949265219162634	0.01767368289830188	0.1199170515337575	-34.31840758731946	-4.142184812088156	3.206879617850994	-3.355927237276775	-410.1144074632109	-60.51387197940463	-11.47199991669087	0.4692263271415244	0.5899293978936732	-1.169745870544945	-0.585674756282772	0.3525999232601295	-0.4909245682057254	1.537217518970464	-0.4803201374871633	-0.4803201374871575	-0.01521024300013547	0.3892375331412313	-0.4004927019887682	0.5661474023808092	7.93087978198894e-07	7.05622863208856e-07	-9.600373890629184e-06	-3.948925593641642e-07	2.169693764799502e-06	3.130420839149002e-06	1.147425591091954e-06
1.55	-0.3639784290796655	0.05610256922869084	0.7995196686842536	0.9883025799414547	-0.3572796156477555	-0.06701406906147976	-0.3063760191967458	0.7637026399792495	0.7637026399792556	-0.04068216720612863	-0.171571090242616	0.2538346720869021	0.1478582747939716	0.6299737009688482	0.3214144438649746	0.5289242814803928	-2.656873311783046	-0.01260230698582214	-0.6391009189495279	0.6888026011397143	-2.418082435604558	-2.418082435604585	-0.3861578605971119	0.04471546740338538	-0.5851269454668704	-0.2381248740000809	-0.1231492643893179	0.02343265725908817	0.002250011778703027	-0.1138670207091293	-0.03757784413820707	0.01835448974112529	0.1151164055596671	-33.46608062432911	-4.777693315337875	3.525901933706058	-3.676703215166085	-406.77022419892	-62.68422133327147	-12.46147065787659	0.4198585515664623	0.5665495860675315	-1.227035600962032	-0.4445008058589004	0.2365550184767335	-0.1935602028938498	1.397689949153061	-0.3327828733694902	-0.3327828733754447	-0.4015419130009844	0.4502116089212912	-0.371486234892219	0.4148677533731864	7.261335957206753e-07	1.894327792547426e-06	-8.485302935767169e-06	-1.896378694799053e-07	2.04023933781731e-06	3.546948926810824e-06	1.123471266443403e-06
1.56	-0.3576598686194443	0.05934450134388257	0.8047464364212578	0.9617167494776789	-0.3573923504209762	-0.07341408210491875	-0.2994189807980825	0.7395091882404391	0.7395091882404435	-0.04456058051693388	-0.1710995397127495	0.2479666532802223	0.1455001613773627	0.63358826943899	0.3269256318768486	0.5163220790574251	-2.659919573129618	-0.009976238754991045	-0.6406300212396734	0.7024452001060687	-2.420282526119372	-2.420282526119439	-0.3896853695710629	0.04975147009126771	-0.588362283445202	-0.233508716378159	-0.1171248941097485	0.01861134082227513	0.003555546201310267	-0.1129641728892809	-0.03566303608475944	0.01903529658408208	0.1103157595855794	-32.60897195514509	-5.404884517115947	3.833148893155175	-4.044399258031942	-403.2940626371088	-64.95197213463524	-13.44367973580853	0.2895680157573031	0.5341916647172504	-1.29522079408181	-0.1370363850593788	0.3222883304895002	-0.1554731386458194	1.345363337075072	-0.09163315366166826	-0.09163315366166325	-0.2071771415468389	0.5661495774458044	-0.2622016793701061	0.557318904340094	5.014852722033192e-07	4.100179856171239e-06	-5.468594046538019e-06	2.410546297786447e-07	1.478209567428355e-06	3.595154146941328e-06	9.900474166789955e-07
1.57	-0.3513096307164161	0.06263943088884347	0.8098439924970763	0.9351135873565719	-0.3574768291506704	-0.07983671340888693	-0.2923290982205695	0.7153049663182778	0.7153049663183407	-0.04846393415960754	-0.17058235943289	0.2420702041255986	0.1431919420901286	0.6363927085401968	0.331947603338794	0.5030918357870124	-2.660303313681853	-0.006924047029308473	-0.6436862715400078	0.7154032169979411	-2.420168161318969	-2.420168161318932	-0.3910597896737156	0.05376291538498292	-0.5908552360885206	-0.2281339517295509	-0.1137408073657088	0.02190528229733458	0.004698898080603827	-0.1075167595365571	-0.03883158827965825	0.01467101441584496	0.1071978987402929	-33.84679630665634	-3.323163708191771	3.536013849757145	-2.319277312457552	-400.2576553954094	-61.00345228288943	-14.4190758129996	0.2659152240748826	0.4695715728868447	-1.351573032526598	0.07239296124104144	0.2945029089736106	-0.3488537250404488	1.251806105733421	0.1219130099989449	0.1219130100144921	-0.112115443497297	0.3310485823805066	-0.2316182797558079	0.5258628706395855	7.971952238704296e-08	7.577465837651594e-06	-7.483773934997147e-08	9.53544390755056e-07	3.754606177809532e-07	3.182955782657688e-06	7.197866605197703e-07
1.58	-0.3449333417490152	0.06598125448561497	0.8148063167523895	0.9085188750002585	-0.3575312223000404	-0.08628353776570448	-0.2851134784260384	0.6911136763867248	0.6911136763868743	-0.05238294020307154	-0.1700225833847005	0.2361510701999543	0.140937131974484	0.638798482312278	0.3363044422389699	0.4892757149563751	-2.658229620172225	-0.003959122689003704	-0.6454686318128705	0.7275926435093986	-2.417696127994256	-2.417696127994116	-0.3928158497312757	0.05827062376054464	-0.5928992376495619	-0.2228268820602027	-0.1103567206216181	0.02519922377249468	0.005842249960032683	-0.1020693461838037	-0.04200014047452463	0.01030673224774909	0.1040800378950271	-35.07311087172535	-1.258917906170758	3.259323361911681	-0.6278764312673	-397.1771676263958	-57.07316413572259	-15.38861431109549	0.2098349499325406	0.4011651523631053	-1.412396306126754	0.3544504273135896	0.3048348534139621	0.09930486684850295	1.191645260992253	0.3799005512002064	0.3799005512002125	-0.2835051325282896	0.6654021938150592	-0.1724114629149487	0.5437799084880086	-1.255611783393659e-07	9.264163809399254e-06	2.482561905988705e-06	1.295018262561958e-06	-1.507509925135271e-07	2.999181076411896e-06	5.942358673948329e-07
1.59	-0.3385355336465941	0.06936373359773498	0.8196277903084886	0.8819567702012808	-0.3575566570605711	-0.09274066368461882	-0.2777806657673646	0.6669584894958617	0.6669584894959032	-0.05632272008463605	-0.1694144079015466	0.2302141778660216	0.138734900299799	0.6406037017349594	0.3401152000345447	0.4749421590032145	-2.653758271808393	-0.001100508192145867	-0.6459629697698835	0.7387924649857671	-2.41297467813801	-2.412974678137914	-0.3950130274270978	0.06332845999570717	-0.5943527465276871	-0.2175554581316262	-0.1048859408278466	0.02121617087260199	0.006834263409931716	-0.1008514153886903	-0.0410197695466609	0.01033551996683309	0.0996359468358487	-34.62279589365772	-1.513997985768131	3.487010210854178	-0.5860307453439916	-394.5918076771849	-58.60241631717314	-16.34219644257028	0.1419785036444616	0.359811349151763	-1.455309192009262	0.5584598743736183	0.2795036258976499	-0.1242347525900004	1.057537105321183	0.5731115503607657	0.573111550354174	-0.1674753776536697	0.4207155273776728	-0.1125392125292964	0.5270998573352408	-3.704074101525695e-08	8.520778053652672e-06	1.190620367389167e-06	1.132970570495983e-06	1.054809291709147e-07	3.125409906074594e-06	6.650771669592753e-07
